<?xml version="1.0" encoding="utf-8"?>
<!-- Generator: Adobe Illustrator 24.0.1, SVG Export Plug-In . SVG Version: 6.00 Build 0)  -->
<svg version="1.1" id="Camada_1" xmlns="http://www.w3.org/2000/svg" xmlns:xlink="http://www.w3.org/1999/xlink" x="0px" y="0px"
	 viewBox="0 0 1170 550" style="enable-background:new 0 0 1170 550;" xml:space="preserve">
<style type="text/css">
	.st0{fill:#F4F4F4;}
	.st1{fill:none;stroke:#FFFFFF;stroke-width:1.5;stroke-miterlimit:10;}
	.st2{fill:#ED7901;}
	.st3{fill:#292458;}
	.st4{opacity:0.8;}
</style>
<image style="overflow:visible;" width="435" height="435" xlink:href="home_02.jpg"  transform="matrix(1 0 0 1 367.5001 57.9903)">
</image>
<rect class="st0" width="1170" height="550"/>
<g>
	<g>
		<line class="st1" x1="585.6" y1="-111.1" x2="840.9" y2="-423.3"/>
		<line class="st1" x1="555.8" y1="-141" x2="811.1" y2="-453.2"/>
		<line class="st1" x1="525.1" y1="-167.8" x2="780.5" y2="-480"/>
		<line class="st1" x1="496.8" y1="-196.1" x2="752.1" y2="-508.3"/>
		<line class="st1" x1="855.6" y1="-321.5" x2="477.5" y2="-322.9"/>
		<line class="st1" x1="855.6" y1="-338.5" x2="477.5" y2="-339.9"/>
		<line class="st1" x1="855.6" y1="-368.8" x2="477.5" y2="-370.2"/>
		<line class="st1" x1="855.6" y1="-385.8" x2="477.5" y2="-387.2"/>
		<line class="st1" x1="855.6" y1="-402.4" x2="477.5" y2="-403.8"/>
		<line class="st1" x1="855.6" y1="-216.3" x2="477.5" y2="-217.7"/>
		<line class="st1" x1="855.6" y1="-233.3" x2="477.5" y2="-234.7"/>
		<line class="st1" x1="855.6" y1="-249.9" x2="477.5" y2="-251.3"/>
		<line class="st1" x1="855.6" y1="-277.3" x2="477.5" y2="-278.7"/>
		<line class="st1" x1="855.6" y1="-294.2" x2="477.5" y2="-295.6"/>
		<line class="st1" x1="748.1" y1="-110.5" x2="492.7" y2="-422.7"/>
		<line class="st1" x1="777.9" y1="-140.3" x2="522.5" y2="-452.5"/>
		<line class="st1" x1="808.6" y1="-167.1" x2="553.2" y2="-479.3"/>
		<line class="st1" x1="836.9" y1="-196.1" x2="581.5" y2="-508.3"/>
	</g>
	<g>
		<path class="st2" d="M694-369.5l-16.9,30.4h19.7l-27.6,44.3h24l-63.4,63.4l25.7-14.2c3.7,0.7,7.4,1.1,11.3,1.1
			c32.9,0,59.6-26.7,59.6-59.6C726.5-321.6,709.8-348.2,694-369.5z"/>
		<path class="st3" d="M655.6-278.1h-19.7l27.6-44.2h-24l63.6-63.6l-15.1,8.4c-11.6-15.1-21.4-26.1-21.2-26.3
			c0,0-59.6,66.6-59.6,99.6c0,23.5,13.6,43.8,33.3,53.5L655.6-278.1z"/>
	</g>
</g>
<g>
	<path class="st3" d="M981.9,299.1c0,12.2-2.8,22.5-8.5,30.9c-5.7,8.4-12.8,15.2-21.6,20.4c-8.7,5.2-18.4,9-29.1,11.3
		c-10.7,2.3-21.1,3.5-31.2,3.5c-9.7,0-19.8-1-30.2-3c-10.4-2-20-5.4-28.7-10.1c-8.7-4.7-16-10.9-21.9-18.6
		c-5.9-7.7-9.1-17.3-9.7-28.7c0-1.8,0.6-3.3,1.9-4.5c1.3-1.2,2.8-1.8,4.6-1.8h39.6c1.2,0,2.2,0.1,3.1,0.3c0.9,0.2,1.7,0.5,2.5,0.9
		c1.4,0.8,3.1,2.2,5.1,4.2c3.2,6.4,7.9,10.8,14.1,13.1c6.2,2.3,12.7,3.5,19.5,3.5c3,0,6.4-0.2,10.3-0.6c3.9-0.4,7.4-1.2,10.7-2.6
		c3.3-1.3,6.1-3.2,8.5-5.7c2.4-2.5,3.6-5.8,3.6-9.8c0-5.4-2-9.3-5.9-11.7c-4-2.4-8.1-4.3-12.5-5.7c-3.4-1.2-7.4-2.4-12-3.5
		c-4.7-1.1-10.1-2.3-16.2-3.5c-9.1-1.8-17.9-4.2-26.5-7.1c-8.5-2.9-16.1-6.8-22.8-11.6c-6.6-4.8-12-10.9-16.1-18.2
		c-4.1-7.3-6.1-16.3-6.1-26.9c0-13.2,3.6-24.6,10.9-34.1c7.2-9.5,16.7-16.8,28.4-21.8c12.7-5.2,27.3-7.8,43.7-7.8
		c6.5,0,13.3,0.6,20.4,1.7c7,1.1,13.9,2.9,20.5,5.4c6.6,2.5,12.8,5.8,18.6,9.9c5.7,4.1,10.7,9.1,14.9,14.9
		c6.7,8.8,10.4,17.7,11,26.7c0,1.6-0.6,3.1-1.9,4.5c-1.3,1.4-2.7,2.1-4.3,2.1h-41.6c-4.2,0-7.4-1.8-9.8-5.4
		c-1.2-4.2-4.3-7.8-9.2-10.8c-5.4-2.8-11.5-4.2-18.4-4.2c-3,0-6,0.2-9.1,0.6c-3.1,0.4-5.9,1.3-8.5,2.7c-2.6,1.4-4.7,3.3-6.2,5.6
		c-1.6,2.3-2.4,5.3-2.4,8.9c0,5.6,3,10.1,8.9,13.5c5.9,3.2,17,6.5,33.3,9.9c9.3,1.8,18.6,4,27.8,6.5c9.2,2.5,17.4,6.1,24.5,10.7
		c7.1,4.6,12.9,10.6,17.4,17.9C979.7,278.4,981.9,287.7,981.9,299.1z"/>
	<path class="st3" d="M604.5,355V178c0-7.7,2.7-14,8.1-18.9c5.4-4.9,11.5-7.4,18.5-7.4h61c13.6,0,26.2,1.6,37.7,4.7
		c11.5,3.1,21.5,8.1,30.1,14.8c8.5,6.8,15.3,15.3,20.1,25.7c4.9,10.4,7.5,22.8,7.9,37.1c0.2,2.8,0.3,6.2,0.3,10.1
		c0,3.9,0,8.3,0,13.2c0,4.6,0,8.9,0,12.7c0,3.8-0.1,7.2-0.3,10c-1.8,55.1-33.3,82.6-94.3,82.6h-81.5c-2.2,0-4.1-0.7-5.5-2.1
		C605.2,359,604.5,357.2,604.5,355z M692.1,317.5c13.2,0,22.8-3.2,28.7-9.5c5.9-6.4,9-15.9,9.2-28.6c0.2-2.8,0.4-6.1,0.5-9.8
		c0.1-3.7,0.2-7.9,0.2-12.6c0-4.6-0.1-8.8-0.2-12.6c-0.1-3.7-0.3-7-0.5-9.8c-0.6-25.2-13.7-37.8-39.4-37.8l-29,0c0,0,0,11.9,0,15.7
		v95.6c0,2.6,0.9,4.8,2.6,6.7c1.7,1.8,4,2.7,6.9,2.7H692.1z"/>
	<path class="st3" d="M382.3,360.8c-1.2-1.6-1.8-3.1-1.8-4.5c0-1.4,0.1-2.3,0.3-2.7l68.9-193.1c2.2-5.8,6.1-8.8,11.9-8.8h46
		c5.7,0,9.7,2.9,11.9,8.8l68.9,193.1c0.2,0.4,0.3,1.3,0.3,2.7c0,1.6-0.6,3.1-1.9,4.4c-1.3,1.3-2.7,2-4.3,2h-38.3
		c-5,0-8.3-2.2-10.1-6.7l-15.4-42.7c-7.1,2.8-14.4,5.1-21.7,7c-7.3,1.8-14.4,3.2-21.2,4.1c-6.8,0.9-13.2,1.5-19.2,1.8
		c-5.9,0.3-7.6,0.5-11.9,0.5c0,0-3.5,13.2-5.3,17.9l-4.2,11.5c-1.8,4.4-5.2,6.7-10.1,6.7h-38.3C385.4,362.6,383.9,362,382.3,360.8z
		 M457.7,283.3c5.5-0.4,11.3-1.1,17.2-2.1c5.1-0.8,10.5-2,16.2-3.5c5.6-1.5,11-3.7,16.2-6.5l-22.9-66.6L457.7,283.3z"/>
	<g class="st4">
		<path class="st3" d="M395.7,396.4v3.2h-15.5v-20.7h15.1v3.2H384v5.4h10v3.2h-10v5.7H395.7z"/>
		<path class="st3" d="M407.7,378.9h3.8v17.5h10.8v3.3h-14.7V378.9z"/>
		<path class="st3" d="M448.7,396.4v3.2h-15.5v-20.7h15.1v3.2H437v5.4h10v3.2h-10v5.7H448.7z M441.4,377.2h-3.2l4-4.1h4.4
			L441.4,377.2z"/>
		<path class="st3" d="M464.9,382.1H458v-3.3h17.6v3.3h-6.9v17.5h-3.8V382.1z"/>
		<path class="st3" d="M499.8,399.6l-4.2-6.1c-0.3,0-0.5,0-0.8,0h-4.7v6h-3.8v-20.7h8.5c5.4,0,8.8,2.8,8.8,7.4
			c0,3.1-1.6,5.4-4.4,6.5l4.8,6.8H499.8z M494.6,382.1h-4.5v8.3h4.5c3.4,0,5.1-1.5,5.1-4.1C499.7,383.6,498,382.1,494.6,382.1z"/>
		<path class="st3" d="M515.6,378.9h3.8v20.7h-3.8V378.9z"/>
		<path class="st3" d="M531.3,389.2c0-6.2,4.7-10.7,11.1-10.7c3.4,0,6.3,1.2,8.2,3.5l-2.5,2.3c-1.5-1.6-3.4-2.4-5.5-2.4
			c-4.3,0-7.4,3-7.4,7.3s3.1,7.3,7.4,7.3c2.2,0,4-0.8,5.5-2.5l2.5,2.4c-1.9,2.2-4.8,3.5-8.2,3.5C536,399.9,531.3,395.4,531.3,389.2z
			"/>
		<path class="st3" d="M560.1,389.2c0-6.1,4.7-10.7,11.2-10.7s11.2,4.5,11.2,10.7s-4.7,10.7-11.2,10.7S560.1,395.4,560.1,389.2z
			 M578.5,389.2c0-4.2-3.1-7.3-7.3-7.3s-7.3,3-7.3,7.3c0,4.2,3.1,7.3,7.3,7.3S578.5,393.5,578.5,389.2z"/>
		<path class="st3" d="M592.5,397.4l1.3-3c1.7,1.3,4.3,2.3,6.8,2.3c3.2,0,4.6-1.2,4.6-2.7c0-4.5-12.3-1.5-12.3-9.2
			c0-3.3,2.7-6.2,8.3-6.2c2.5,0,5.1,0.7,6.9,1.8l-1.2,3c-1.9-1.1-3.9-1.6-5.7-1.6c-3.2,0-4.5,1.2-4.5,2.8c0,4.4,12.3,1.5,12.3,9.1
			c0,3.3-2.7,6.2-8.4,6.2C597.4,399.9,594.2,398.9,592.5,397.4z"/>
		<path class="st3" d="M652,396.4v3.2h-15.5v-20.7h15.1v3.2h-11.3v5.4h10v3.2h-10v5.7H652z"/>
		<path class="st3" d="M698.3,378.9v20.7h-3.8v-8.9h-10.7v8.9h-3.8v-20.7h3.8v8.6h10.7v-8.6H698.3z"/>
		<path class="st3" d="M711.6,378.9h3.8v20.7h-3.8V378.9z"/>
		<path class="st3" d="M728.8,378.9h9.1c6.7,0,11.3,4.1,11.3,10.4c0,6.2-4.6,10.4-11.3,10.4h-9.1V378.9z M737.7,396.3
			c4.6,0,7.6-2.8,7.6-7.1c0-4.3-3-7.1-7.6-7.1h-5v14.2H737.7z"/>
		<path class="st3" d="M774.5,399.6l-4.2-6.1c-0.3,0-0.5,0-0.8,0h-4.7v6h-3.8v-20.7h8.5c5.4,0,8.8,2.8,8.8,7.4
			c0,3.1-1.6,5.4-4.4,6.5l4.8,6.8H774.5z M769.3,382.1h-4.5v8.3h4.5c3.4,0,5.1-1.5,5.1-4.1C774.4,383.6,772.7,382.1,769.3,382.1z"/>
		<path class="st3" d="M803.7,394.8h-10.4l-2,4.8h-4l9.3-20.7h3.8l9.4,20.7h-4L803.7,394.8z M802.5,391.8l-3.9-9.1l-3.9,9.1H802.5z
			 M799.3,377.2h-3.2l4-4.1h4.4L799.3,377.2z"/>
		<path class="st3" d="M819.6,390.6v-11.7h3.8v11.5c0,4.3,1.9,6.1,5.3,6.1c3.3,0,5.2-1.8,5.2-6.1v-11.5h3.8v11.7
			c0,6-3.4,9.3-9.1,9.3C823,399.9,819.6,396.6,819.6,390.6z"/>
		<path class="st3" d="M850.8,378.9h3.8v17.5h10.8v3.3h-14.7V378.9z"/>
		<path class="st3" d="M876.3,378.9h3.8v20.7h-3.8V378.9z"/>
		<path class="st3" d="M892,389.2c0-6.2,4.7-10.7,11.1-10.7c3.4,0,6.3,1.2,8.2,3.5l-2.5,2.3c-1.5-1.6-3.4-2.4-5.5-2.4
			c-4.3,0-7.4,3-7.4,7.3s3.1,7.3,7.4,7.3c2.2,0,4-0.8,5.5-2.5l2.5,2.4c-1.9,2.2-4.8,3.5-8.2,3.5C896.7,399.9,892,395.4,892,389.2z"
			/>
		<path class="st3" d="M920.8,389.2c0-6.1,4.7-10.7,11.2-10.7c6.4,0,11.2,4.5,11.2,10.7s-4.7,10.7-11.2,10.7
			C925.5,399.9,920.8,395.4,920.8,389.2z M939.2,389.2c0-4.2-3.1-7.3-7.3-7.3s-7.3,3-7.3,7.3c0,4.2,3.1,7.3,7.3,7.3
			S939.2,393.5,939.2,389.2z"/>
		<path class="st3" d="M953.2,397.4l1.3-3c1.7,1.3,4.3,2.3,6.8,2.3c3.2,0,4.6-1.2,4.6-2.7c0-4.5-12.3-1.5-12.3-9.2
			c0-3.3,2.7-6.2,8.3-6.2c2.5,0,5.1,0.7,6.9,1.8l-1.2,3c-1.9-1.1-3.9-1.6-5.7-1.6c-3.2,0-4.5,1.2-4.5,2.8c0,4.4,12.3,1.5,12.3,9.1
			c0,3.3-2.7,6.2-8.4,6.2C958.1,399.9,954.9,398.9,953.2,397.4z"/>
	</g>
	<path class="st2" d="M312.6,200.8l-24.2,43.5h28.2L277,307.9h34.3l-90.9,90.8l36.8-20.3c5.3,1,10.7,1.6,16.2,1.6
		c47.2,0,85.5-38.3,85.5-85.5C359.1,269.6,335.1,231.4,312.6,200.8z"/>
	<path class="st3" d="M257.4,331.9h-28.2l39.6-63.4h-34.3l91.2-91.2L304,189.4c-16.7-21.7-30.6-37.4-30.4-37.7
		c0,0-85.5,95.5-85.5,142.7c0,33.6,19.4,62.7,47.7,76.7L257.4,331.9z"/>
</g>
</svg>
