<?xml version="1.0" encoding="utf-8"?>
<!-- Generator: Adobe Illustrator 25.4.1, SVG Export Plug-In . SVG Version: 6.00 Build 0)  -->
<svg version="1.1" id="Camada_1" xmlns="http://www.w3.org/2000/svg" xmlns:xlink="http://www.w3.org/1999/xlink" x="0px" y="0px"
	 viewBox="0 0 20 20" style="enable-background:new 0 0 20 20;" xml:space="preserve">
<style type="text/css">
	.st0{fill:#FFFFFF;}
</style>
<path class="st0" d="M4.4,2.3c0,1.2-0.9,2-2,2s-1.9-0.9-1.9-2c0-1.1,0.9-2,2-2S4.4,1.2,4.4,2.3z M4.4,6H0.3v12.9h4L4.4,6L4.4,6z
	 M10.8,6h-4v12.9h4v-6.8c0-3.8,4.9-4.1,4.9,0v6.8h4.1v-8.2c0-6.3-7.2-6.1-8.8-3C10.8,7.7,10.8,6,10.8,6z"/>
</svg>
