<?xml version="1.0" encoding="utf-8"?>
<!-- Generator: Adobe Illustrator 25.4.1, SVG Export Plug-In . SVG Version: 6.00 Build 0)  -->
<svg version="1.1" id="Camada_1" xmlns="http://www.w3.org/2000/svg" xmlns:xlink="http://www.w3.org/1999/xlink" x="0px" y="0px"
	 viewBox="0 0 20 20" style="enable-background:new 0 0 20 20;" xml:space="preserve">
<style type="text/css">
	.st0{fill:#FFFFFF;}
</style>
<path class="st0" d="M5.8,2.1C5.8,3.1,5,3.9,4,3.9S2.2,3.1,2.2,2.1c0-1,0.8-1.9,1.9-1.9S5.8,1.1,5.8,2.1z M5.8,5.4H2.1v11.8h3.6
	L5.8,5.4L5.8,5.4z M11.7,5.4H8v11.8h3.6V11c0-3.5,4.4-3.7,4.4,0v6.2h3.7V9.8c0-5.8-6.6-5.6-8.1-2.7C11.7,7,11.7,5.4,11.7,5.4z"/>
</svg>
