<?xml version="1.0" encoding="utf-8"?>
<!-- Generator: Adobe Illustrator 25.4.1, SVG Export Plug-In . SVG Version: 6.00 Build 0)  -->
<svg version="1.1" id="Camada_1" xmlns="http://www.w3.org/2000/svg" xmlns:xlink="http://www.w3.org/1999/xlink" x="0px" y="0px"
	 viewBox="0 0 35.2 20" style="enable-background:new 0 0 35.2 20;" xml:space="preserve">
<style type="text/css">
	.st0{fill:#FFFFFF;}
</style>
<g>
	<path class="st0" d="M9.9,0c5.5,0,9.9,4.5,9.9,10s-4.4,10-9.9,10S0,15.5,0,10S4.4,0,9.9,0z M25.8,0.6c2.7,0,5,4.2,5,9.4h0
		c0,5.2-2.2,9.4-5,9.4s-5-4.2-5-9.4S23.1,0.6,25.8,0.6z M33.5,1.6c1,0,1.7,3.8,1.7,8.4c0,4.7-0.8,8.4-1.7,8.4s-1.7-3.8-1.7-8.4
		S32.5,1.6,33.5,1.6z"/>
</g>
</svg>
