<?xml version="1.0" encoding="utf-8"?>
<!-- Generator: Adobe Illustrator 25.4.1, SVG Export Plug-In . SVG Version: 6.00 Build 0)  -->
<svg version="1.1" id="Camada_1" xmlns="http://www.w3.org/2000/svg" xmlns:xlink="http://www.w3.org/1999/xlink" x="0px" y="0px"
	 viewBox="0 0 20 20" style="enable-background:new 0 0 20 20;" xml:space="preserve">
<style type="text/css">
	.st0{fill:#FFFFFF;}
</style>
<path class="st0" d="M5.1,2.2c0,1.1-0.8,2-2,2s-1.9-0.8-1.9-2c0-1,0.8-2,2-2S5.1,1.2,5.1,2.2z M5.1,5.8H1.2v12.4H5L5.1,5.8L5.1,5.8z
	 M11.3,5.8H7.5v12.4h3.8v-6.5c0-3.6,4.7-3.9,4.7,0v6.5h3.9v-7.8c0-6.1-6.9-5.9-8.5-2.9C11.3,7.4,11.3,5.8,11.3,5.8z"/>
</svg>
