<?xml version="1.0" encoding="utf-8"?>
<!-- Generator: Adobe Illustrator 25.4.1, SVG Export Plug-In . SVG Version: 6.00 Build 0)  -->
<svg version="1.1" id="Camada_1" xmlns="http://www.w3.org/2000/svg" xmlns:xlink="http://www.w3.org/1999/xlink" x="0px" y="0px"
	 viewBox="0 0 387.4 45.5" style="enable-background:new 0 0 387.4 45.5;" xml:space="preserve">
<style type="text/css">
	.st0{fill:#272838;}
</style>
<g>
	<path class="st0" d="M0,1.2h18.5c2.1,0,4.2,0.2,6.3,0.6c2.1,0.4,4,1.2,5.6,2.2c1.6,1.1,3,2.5,4,4.3c1,1.8,1.5,4.1,1.5,6.8
		c0,2.6-0.6,5-1.9,7c-1.3,2-3.2,3.6-5.6,4.6l10.9,17.4H22.7l-8.2-15.4H14v15.4H0V1.2z M13.9,19.4h2.8c0.5,0,1,0,1.6-0.1
		s1.1-0.3,1.6-0.5c0.5-0.3,0.9-0.6,1.3-1.1c0.3-0.5,0.5-1.1,0.5-1.9s-0.1-1.4-0.4-1.8c-0.3-0.4-0.6-0.8-1.1-1
		c-0.4-0.2-0.9-0.4-1.4-0.4c-0.5-0.1-1-0.1-1.4-0.1h-3.4V19.4z"/>
	<path class="st0" d="M49.9,22.5c0-3.4,0.6-6.6,1.8-9.3c1.2-2.8,2.9-5.1,5-7.1c2.1-1.9,4.6-3.4,7.6-4.5C67.3,0.5,70.4,0,73.8,0
		c3.4,0,6.6,0.5,9.5,1.6c2.9,1.1,5.4,2.6,7.6,4.5c2.1,1.9,3.8,4.3,5,7.1c1.2,2.8,1.8,5.9,1.8,9.3c0,3.4-0.6,6.6-1.8,9.4
		c-1.2,2.8-2.9,5.3-5,7.3c-2.1,2-4.7,3.6-7.6,4.6c-2.9,1.1-6.1,1.6-9.5,1.6c-3.4,0-6.6-0.5-9.5-1.6c-2.9-1.1-5.4-2.6-7.6-4.6
		c-2.1-2-3.8-4.4-5-7.3C50.6,29.1,49.9,25.9,49.9,22.5z M65.3,22.5c0,1.4,0.2,2.7,0.6,3.9c0.4,1.2,1,2.2,1.8,3
		c0.7,0.9,1.6,1.5,2.7,2c1.1,0.5,2.2,0.7,3.4,0.7c1.2,0,2.3-0.2,3.4-0.7c1-0.5,1.9-1.1,2.7-2c0.8-0.8,1.4-1.9,1.8-3
		c0.4-1.2,0.6-2.5,0.6-3.9c0-1.4-0.2-2.6-0.6-3.8c-0.4-1.2-1-2.1-1.8-2.9c-0.8-0.8-1.7-1.4-2.7-1.9c-1-0.4-2.2-0.7-3.4-0.7
		c-1.2,0-2.3,0.2-3.4,0.7c-1.1,0.4-2,1.1-2.7,1.9c-0.7,0.8-1.3,1.8-1.8,2.9C65.5,19.8,65.3,21.1,65.3,22.5z"/>
	<path class="st0" d="M112.4,44.2v-43h16c3.4,0,6.7,0.3,9.8,1s5.8,1.8,8.2,3.5c2.4,1.6,4.3,3.8,5.7,6.5c1.4,2.7,2.1,6.1,2.1,10.3
		c0,3.8-0.7,7-2,9.8c-1.4,2.8-3.2,5-5.4,6.8c-2.3,1.8-4.9,3.1-7.8,3.9c-3,0.8-6,1.3-9.2,1.3H112.4z M126.3,13.5v18.3h2.7
		c3.4,0,6-0.7,7.8-2.2c1.8-1.5,2.7-3.9,2.7-7.2c0-2.8-0.9-5-2.7-6.5c-1.8-1.6-4.3-2.3-7.3-2.3H126.3z"/>
	<path class="st0" d="M166.8,22.5c0-3.4,0.6-6.6,1.8-9.3c1.2-2.8,2.9-5.1,5-7.1c2.1-1.9,4.7-3.4,7.6-4.5c2.9-1.1,6.1-1.6,9.5-1.6
		c3.4,0,6.6,0.5,9.5,1.6c2.9,1.1,5.4,2.6,7.6,4.5c2.1,1.9,3.8,4.3,5,7.1c1.2,2.8,1.8,5.9,1.8,9.3c0,3.4-0.6,6.6-1.8,9.4
		c-1.2,2.8-2.9,5.3-5,7.3c-2.1,2-4.7,3.6-7.6,4.6c-2.9,1.1-6.1,1.6-9.5,1.6c-3.4,0-6.6-0.5-9.5-1.6c-2.9-1.1-5.4-2.6-7.6-4.6
		c-2.1-2-3.8-4.4-5-7.3C167.4,29.1,166.8,25.9,166.8,22.5z M182.2,22.5c0,1.4,0.2,2.7,0.6,3.9c0.4,1.2,1,2.2,1.8,3
		c0.7,0.9,1.7,1.5,2.7,2c1.1,0.5,2.2,0.7,3.4,0.7c1.2,0,2.3-0.2,3.4-0.7c1-0.5,1.9-1.1,2.7-2c0.8-0.8,1.4-1.9,1.8-3
		c0.4-1.2,0.6-2.5,0.6-3.9c0-1.4-0.2-2.6-0.6-3.8c-0.4-1.2-1-2.1-1.8-2.9c-0.8-0.8-1.7-1.4-2.7-1.9c-1-0.4-2.2-0.7-3.4-0.7
		c-1.2,0-2.3,0.2-3.4,0.7c-1.1,0.4-2,1.1-2.7,1.9c-0.7,0.8-1.3,1.8-1.8,2.9S182.2,21.1,182.2,22.5z"/>
	<path class="st0" d="M229.2,1.2h14.6v30.6h14.3v12.5h-28.9V1.2z"/>
	<path class="st0" d="M285.2,17.8h13.1v11.8h-13.1v14.6h-14.2v-43h29v12.1h-14.9V17.8z"/>
	<path class="st0" d="M312.9,22.5c0-3.4,0.6-6.6,1.8-9.3c1.2-2.8,2.9-5.1,5-7.1c2.1-1.9,4.7-3.4,7.6-4.5c2.9-1.1,6.1-1.6,9.5-1.6
		c3.4,0,6.6,0.5,9.5,1.6c2.9,1.1,5.4,2.6,7.6,4.5c2.1,1.9,3.8,4.3,5,7.1c1.2,2.8,1.8,5.9,1.8,9.3c0,3.4-0.6,6.6-1.8,9.4
		c-1.2,2.8-2.9,5.3-5,7.3c-2.1,2-4.7,3.6-7.6,4.6c-2.9,1.1-6.1,1.6-9.5,1.6c-3.4,0-6.6-0.5-9.5-1.6c-2.9-1.1-5.4-2.6-7.6-4.6
		c-2.1-2-3.8-4.4-5-7.3C313.6,29.1,312.9,25.9,312.9,22.5z M328.3,22.5c0,1.4,0.2,2.7,0.6,3.9c0.4,1.2,1,2.2,1.8,3
		c0.7,0.9,1.7,1.5,2.7,2c1.1,0.5,2.2,0.7,3.4,0.7c1.2,0,2.3-0.2,3.4-0.7c1-0.5,1.9-1.1,2.7-2c0.8-0.8,1.4-1.9,1.8-3
		c0.4-1.2,0.6-2.5,0.6-3.9c0-1.4-0.2-2.6-0.6-3.8s-1-2.1-1.8-2.9c-0.8-0.8-1.7-1.4-2.7-1.9c-1-0.4-2.2-0.7-3.4-0.7
		c-1.2,0-2.3,0.2-3.4,0.7c-1.1,0.4-2,1.1-2.7,1.9c-0.7,0.8-1.3,1.8-1.8,2.9C328.5,19.8,328.3,21.1,328.3,22.5z"/>
	<path class="st0" d="M371.3,37.4c0-1.1,0.2-2.1,0.6-3.1c0.4-1,1-1.8,1.8-2.5c0.7-0.7,1.6-1.3,2.6-1.7c1-0.4,2-0.6,3.1-0.6
		c1.1,0,2.1,0.2,3,0.6c1,0.4,1.8,1,2.5,1.7c0.7,0.7,1.3,1.5,1.7,2.5c0.4,1,0.6,2,0.6,3.1c0,1.1-0.2,2.1-0.6,3.1
		c-0.4,1-1,1.8-1.7,2.5c-0.7,0.7-1.6,1.2-2.5,1.6s-2,0.6-3,0.6c-1.1,0-2.1-0.2-3.1-0.6c-1-0.4-1.9-1-2.6-1.6
		c-0.7-0.7-1.3-1.5-1.8-2.5C371.6,39.5,371.3,38.5,371.3,37.4z"/>
</g>
</svg>
